<svg width="129" height="44" viewBox="0 0 129 44" fill="none" xmlns="http://www.w3.org/2000/svg">
<g filter="url(#filter0_ddddii_540_64)">
<path fill-rule="evenodd" clip-rule="evenodd" d="M9.41 22.19V25.61H28.1V26.51H9.47V33.71H33.32V30.26H14.42V29.33H33.05V22.19H9.41ZM33.05 21.29V8.09002H28.31V12.29H26.18V8.21002H21.5V21.02H26.18V16.88H28.31V21.29H33.05ZM19.76 8.39002H15.23V10.76H12.53V8.39002H8V20.75H19.76V8.39002ZM15.23 14.45H12.53V16.97H15.23V14.45ZM4.41 24.2302C3.53724 23.3301 3 22.1028 3 20.75V8.39002C3 5.6286 5.23858 3.39002 8 3.39002H12.53C12.9978 3.39002 13.4506 3.45426 13.88 3.5744C14.3094 3.45426 14.7622 3.39002 15.23 3.39002H19.76C19.8812 3.39002 20.0013 3.39433 20.1203 3.40281C20.5585 3.27726 21.0214 3.21002 21.5 3.21002H26.18C26.4484 3.21002 26.7119 3.23118 26.9689 3.27191C27.3957 3.15337 27.8455 3.09002 28.31 3.09002H33.05C33.8991 3.09002 34.6988 3.30168 35.3991 3.67511C35.9209 3.49049 36.4824 3.39002 37.0674 3.39002H51.9174C52.5703 3.39002 53.1939 3.51515 53.7657 3.74273C54.4947 3.32733 55.3383 3.09002 56.2374 3.09002H61.3074C64.0689 3.09002 66.3074 5.3286 66.3074 8.09002V14.601C66.81 14.5255 67.3255 14.3341 67.8888 13.972C68.716 13.4333 69.503 12.6405 70.2152 11.4612C70.8958 10.3148 71.3712 8.96303 71.5891 7.33631C71.7677 6.00257 72.4764 4.79713 73.555 3.99246C74.6335 3.1878 75.9909 2.85183 77.3202 3.06051L82.4802 3.87051C85.1694 4.29265 87.0268 6.78844 86.659 9.48559C86.56 10.2117 86.4295 10.9294 86.2676 11.6383L89.5723 13.6266V8.24002C89.5723 5.4786 91.8108 3.24002 94.5723 3.24002H99.4323C101.269 3.24002 102.874 4.23029 103.743 5.70602C104.609 4.21372 106.223 3.21002 108.072 3.21002H112.752C113.021 3.21002 113.284 3.23118 113.541 3.27191C113.968 3.15337 114.418 3.09002 114.882 3.09002H119.622C122.384 3.09002 124.622 5.3286 124.622 8.09002V23.51C124.622 23.6617 124.616 23.8118 124.602 23.96C124.616 24.1083 124.622 24.2583 124.622 24.41V34.01C124.622 36.7714 122.384 39.01 119.622 39.01H114.612C111.851 39.01 109.612 36.7714 109.612 34.01V33.76H96.0947C95.651 36.0671 93.6214 37.81 91.1848 37.81H65.2648C65.037 37.81 64.8127 37.7948 64.5929 37.7653C63.7704 38.3597 62.7598 38.71 61.6674 38.71H38.3874C37.4628 38.71 36.5967 38.459 35.8537 38.0214C35.1107 38.459 34.2447 38.71 33.32 38.71H9.47C6.70858 38.71 4.47 36.4714 4.47 33.71V26.51C4.47 26.4716 4.47043 26.4334 4.47129 26.3952C4.43095 26.1394 4.41 25.8772 4.41 25.61V24.2302ZM38.3874 33.71H61.6674V29.24H43.5474V25.67H38.3874V33.71ZM56.2374 27.14H61.3074V8.09002H56.2374V12.53H53.0574V17.27H56.2374V27.14ZM51.9174 18.05V8.39002H37.0674V12.35H46.9074V14.36H37.1274V24.05H47.8674C47.9376 24.05 48.0076 24.0498 48.0774 24.0492C48.1445 24.0487 48.2114 24.048 48.2781 24.047C49.3083 24.0316 50.2947 23.9578 51.2374 23.8257C51.2742 23.8206 51.3108 23.8153 51.3474 23.81C51.5468 23.781 51.739 23.75 51.924 23.7171C51.9444 23.7135 51.9647 23.7098 51.9849 23.7061C52.7928 23.559 53.4603 23.3737 53.9874 23.15V19.25C53.7122 19.3584 53.4022 19.4582 53.0574 19.5492C52.8853 19.5947 52.7044 19.6379 52.5149 19.6791C52.3245 19.7204 52.1253 19.7595 51.9174 19.7964C51.7529 19.8257 51.5829 19.8535 51.4074 19.88C51.351 19.8876 51.2943 19.895 51.2374 19.9022C51.0886 19.921 50.9383 19.9384 50.7866 19.9544C50.2075 20.0154 49.6078 20.0559 48.9874 20.0757C48.9649 20.0764 48.9423 20.0771 48.9196 20.0778C48.643 20.0859 48.3622 20.09 48.0774 20.09H42.1374V18.05H51.9174ZM65.2648 28.07V32.81H91.1848V28.07H65.2648ZM100.452 22.55C100.602 22.55 100.752 22.5487 100.902 22.546C101.618 22.5333 102.341 22.4905 103.072 22.4174C103.378 22.3869 103.684 22.3511 103.992 22.31C104.209 22.2811 104.418 22.25 104.618 22.2166C104.64 22.213 104.661 22.2094 104.682 22.2058C105.566 22.0554 106.296 21.8601 106.872 21.62V17.42C106.413 17.5894 105.891 17.7368 105.307 17.8623C105.029 17.9218 104.738 17.9765 104.432 18.0262C104.318 18.0448 104.201 18.0628 104.082 18.08C103.867 18.108 103.652 18.1331 103.438 18.1554C103.316 18.1682 103.194 18.1801 103.072 18.1911C102.669 18.2273 102.269 18.2536 101.872 18.27C101.547 18.2833 101.224 18.29 100.902 18.29H99.4323V8.24002H94.5723V22.55H100.452ZM108.072 23.24H112.752V17.69H114.882V23.51H119.622V8.09002H114.882V12.95H112.752V8.21002H108.072V23.24ZM95.9223 24.41V28.76H114.612V34.01H119.622V24.41H95.9223ZM81.5808 9.60016C81.6274 9.33837 81.6687 9.07499 81.7048 8.81002L76.5448 8.00002C76.5076 8.27794 76.4646 8.55232 76.4156 8.82315C76.0703 10.7352 75.4333 12.4709 74.5048 14.03C74.0871 14.7236 73.6321 15.3582 73.1398 15.9338C72.3829 16.8187 71.5379 17.5641 70.6048 18.17C70.4777 18.252 70.3499 18.3305 70.2215 18.4057C70.217 18.4083 70.2124 18.411 70.2079 18.4136C68.9665 19.1372 67.6664 19.5406 66.3074 19.6238C66.1309 19.6346 65.9534 19.64 65.7748 19.64V24.44C65.9531 24.4385 66.1307 24.4339 66.3074 24.4261C67.8559 24.358 69.345 24.0484 70.7748 23.4974C71.1101 23.3682 71.4421 23.2258 71.7708 23.07C72.0342 22.9452 72.2956 22.8119 72.5548 22.67C72.7891 22.5409 73.0196 22.4066 73.2464 22.2671C73.2509 22.2643 73.2554 22.2616 73.2599 22.2588C74.5946 21.4364 75.8005 20.4353 76.8776 19.2556C77.1863 18.9175 77.4845 18.5648 77.772 18.1973C77.864 18.0797 77.955 17.9606 78.0448 17.84L88.5448 24.56L91.2148 20.45L80.2948 13.88C80.3259 13.8083 80.3564 13.7363 80.3865 13.6643C80.4141 13.5984 80.4412 13.5324 80.468 13.4663C80.9734 12.2185 81.3444 10.9298 81.5808 9.60016Z" fill="#F0F0F3"/>
</g>
<path d="M26.1801 21.0198H21.5001V8.20984H26.1801V12.2898H28.3101V8.08984H33.0501V21.2898H28.3101V16.8798H26.1801V21.0198ZM19.7601 20.7498H8.00008V8.38984H12.5301V10.7598H15.2301V8.38984H19.7601V20.7498ZM15.2301 16.9698V14.4498H12.5301V16.9698H15.2301ZM33.3201 30.2598V33.7098H9.47008V26.5098H28.1001V25.6098H9.41008V22.1898H33.0501V29.3298H14.4201V30.2598H33.3201ZM56.2375 17.2698H53.0575V12.5298H56.2375V8.08984H61.3075V27.1398H56.2375V17.2698ZM46.9075 14.3598V12.3498H37.0675V8.38984H51.9175V18.0498H42.1375V20.0898H48.0775C49.2575 20.0898 50.3675 20.0198 51.4075 19.8798C52.4675 19.7198 53.3275 19.5098 53.9875 19.2498V23.1498C53.3275 23.4298 52.4475 23.6498 51.3475 23.8098C50.2475 23.9698 49.0875 24.0498 47.8675 24.0498H37.1275V14.3598H46.9075ZM61.6675 29.2398V33.7098H38.3875V25.6698H43.5475V29.2398H61.6675ZM78.0449 17.8398C76.5249 19.8798 74.6949 21.4898 72.5549 22.6698C70.4349 23.8298 68.1749 24.4198 65.7749 24.4398V19.6398C67.4749 19.6398 69.0849 19.1498 70.6049 18.1698C72.1449 17.1698 73.4449 15.7898 74.5049 14.0298C75.5649 12.2498 76.2449 10.2398 76.5449 7.99984L81.7049 8.80984C81.4649 10.5698 80.9949 12.2598 80.2949 13.8798L91.2149 20.4498L88.5449 24.5598L78.0449 17.8398ZM65.2649 28.0698H91.1849V32.8098H65.2649V28.0698ZM119.622 8.08984V23.5098H114.882V17.6898H112.752V23.2398H108.072V8.20984H112.752V12.9498H114.882V8.08984H119.622ZM106.872 21.6198C106.152 21.9198 105.192 22.1498 103.992 22.3098C102.792 22.4698 101.612 22.5498 100.452 22.5498H94.5723V8.23984H99.4323V18.2898H100.902C101.942 18.2898 103.002 18.2198 104.082 18.0798C105.182 17.9198 106.112 17.6998 106.872 17.4198V21.6198ZM95.9223 24.4098H119.622V34.0098H114.612V28.7598H95.9223V24.4098Z" fill="#7B81BE"/>
<defs>
<filter id="filter0_ddddii_540_64" x="0" y="0" width="128.622" height="43.01" filterUnits="userSpaceOnUse" color-interpolation-filters="sRGB">
<feFlood flood-opacity="0" result="BackgroundImageFix"/>
<feColorMatrix in="SourceAlpha" type="matrix" values="0 0 0 0 0 0 0 0 0 0 0 0 0 0 0 0 0 0 127 0" result="hardAlpha"/>
<feOffset dx="1" dy="1"/>
<feGaussianBlur stdDeviation="1.5"/>
<feColorMatrix type="matrix" values="0 0 0 0 0.745098 0 0 0 0 0.745098 0 0 0 0 0.752941 0 0 0 0.9 0"/>
<feBlend mode="normal" in2="BackgroundImageFix" result="effect1_dropShadow_540_64"/>
<feColorMatrix in="SourceAlpha" type="matrix" values="0 0 0 0 0 0 0 0 0 0 0 0 0 0 0 0 0 0 127 0" result="hardAlpha"/>
<feOffset dx="-1" dy="-1"/>
<feGaussianBlur stdDeviation="1"/>
<feColorMatrix type="matrix" values="0 0 0 0 1 0 0 0 0 1 0 0 0 0 1 0 0 0 0.9 0"/>
<feBlend mode="normal" in2="effect1_dropShadow_540_64" result="effect2_dropShadow_540_64"/>
<feColorMatrix in="SourceAlpha" type="matrix" values="0 0 0 0 0 0 0 0 0 0 0 0 0 0 0 0 0 0 127 0" result="hardAlpha"/>
<feOffset dx="1" dy="-1"/>
<feGaussianBlur stdDeviation="1"/>
<feColorMatrix type="matrix" values="0 0 0 0 0.745098 0 0 0 0 0.745098 0 0 0 0 0.752941 0 0 0 0.2 0"/>
<feBlend mode="normal" in2="effect2_dropShadow_540_64" result="effect3_dropShadow_540_64"/>
<feColorMatrix in="SourceAlpha" type="matrix" values="0 0 0 0 0 0 0 0 0 0 0 0 0 0 0 0 0 0 127 0" result="hardAlpha"/>
<feOffset dx="-1" dy="1"/>
<feGaussianBlur stdDeviation="1"/>
<feColorMatrix type="matrix" values="0 0 0 0 0.745098 0 0 0 0 0.745098 0 0 0 0 0.752941 0 0 0 0.2 0"/>
<feBlend mode="normal" in2="effect3_dropShadow_540_64" result="effect4_dropShadow_540_64"/>
<feBlend mode="normal" in="SourceGraphic" in2="effect4_dropShadow_540_64" result="shape"/>
<feColorMatrix in="SourceAlpha" type="matrix" values="0 0 0 0 0 0 0 0 0 0 0 0 0 0 0 0 0 0 127 0" result="hardAlpha"/>
<feOffset dx="-1" dy="-1"/>
<feGaussianBlur stdDeviation="1"/>
<feComposite in2="hardAlpha" operator="arithmetic" k2="-1" k3="1"/>
<feColorMatrix type="matrix" values="0 0 0 0 0.745098 0 0 0 0 0.745098 0 0 0 0 0.752941 0 0 0 0.5 0"/>
<feBlend mode="normal" in2="shape" result="effect5_innerShadow_540_64"/>
<feColorMatrix in="SourceAlpha" type="matrix" values="0 0 0 0 0 0 0 0 0 0 0 0 0 0 0 0 0 0 127 0" result="hardAlpha"/>
<feOffset dx="1" dy="1"/>
<feGaussianBlur stdDeviation="1"/>
<feComposite in2="hardAlpha" operator="arithmetic" k2="-1" k3="1"/>
<feColorMatrix type="matrix" values="0 0 0 0 1 0 0 0 0 1 0 0 0 0 1 0 0 0 0.3 0"/>
<feBlend mode="normal" in2="effect5_innerShadow_540_64" result="effect6_innerShadow_540_64"/>
</filter>
</defs>
</svg>
