<svg width="193" height="62" viewBox="0 0 193 62" fill="none" xmlns="http://www.w3.org/2000/svg">
<g filter="url(#filter0_ddddii_540_72)">
<path fill-rule="evenodd" clip-rule="evenodd" d="M12.803 32.3099V37.5335H41.3861V38.9081H12.8947V49.905H49.3691V44.6357H20.4649V43.2152H48.9562V32.3099H12.803ZM48.9562 30.9353V10.7743H41.7072V17.1891H38.4498V10.9575H31.2925V30.5229H38.4498V24.1997H41.7072V30.9353H48.9562ZM28.6315 11.2325H21.7036V14.8523H17.5745V11.2325H10.6466V30.1105H28.6315V11.2325ZM21.7036 20.4882H17.5745V24.3371H21.7036V20.4882ZM5.15635 35.4261C3.82161 34.0513 3 32.1767 3 30.1105V11.2325C3 7.0148 6.42351 3.5957 10.6466 3.5957H17.5745C18.2899 3.5957 18.9823 3.69382 19.6391 3.87731C20.2958 3.69382 20.9883 3.5957 21.7036 3.5957H28.6315C28.8168 3.5957 29.0005 3.60228 29.1825 3.61523C29.8527 3.42347 30.5606 3.32078 31.2925 3.32078H38.4498C38.8603 3.32078 39.2633 3.35309 39.6563 3.4153C40.309 3.23426 40.9968 3.13749 41.7072 3.13749H48.9562C50.2548 3.13749 51.4777 3.46077 52.5488 4.03113C53.3467 3.74915 54.2055 3.5957 55.1002 3.5957H77.8106C78.8091 3.5957 79.7628 3.78681 80.6372 4.13441C81.7521 3.49995 83.0423 3.13749 84.4173 3.13749H92.171C96.3941 3.13749 99.8176 6.55659 99.8176 10.7743V20.7188C100.586 20.6035 101.375 20.3112 102.236 19.7581C103.501 18.9353 104.705 17.7245 105.794 15.9232C106.835 14.1723 107.562 12.1076 107.895 9.62307C108.168 7.58598 109.252 5.74485 110.901 4.51584C112.551 3.28683 114.627 2.77369 116.66 3.09242L124.551 4.32958C128.664 4.97433 131.504 8.78629 130.942 12.9058C130.79 14.0148 130.591 15.111 130.343 16.1938L135.397 19.2305V11.0034C135.397 6.78569 138.821 3.3666 143.044 3.3666H150.476C153.285 3.3666 155.74 4.87908 157.07 7.13304C158.393 4.85378 160.862 3.32078 163.69 3.32078H170.847C171.257 3.32078 171.66 3.35309 172.053 3.4153C172.706 3.23426 173.394 3.13749 174.104 3.13749H181.353C185.576 3.13749 189 6.55659 189 10.7743V34.326C189 34.5577 188.99 34.7869 188.969 35.0134C188.99 35.2398 189 35.469 189 35.7007V50.3632C189 54.5809 185.576 58 181.353 58H173.691C169.468 58 166.045 54.5809 166.045 50.3632V49.9814H145.372C144.693 53.5052 141.59 56.1672 137.863 56.1672H98.2232C97.8747 56.1672 97.5317 56.1439 97.1956 56.0988C95.9377 57.0067 94.3922 57.5418 92.7216 57.5418H57.1189C55.7048 57.5418 54.3803 57.1584 53.244 56.4901C52.1077 57.1584 50.7833 57.5418 49.3691 57.5418H12.8947C8.67162 57.5418 5.24811 54.1227 5.24811 49.905V38.9081C5.24811 38.8495 5.24877 38.791 5.25009 38.7327C5.18839 38.342 5.15635 37.9415 5.15635 37.5335V35.4261ZM57.1189 49.905H92.7216V43.0778H65.0102V37.6251H57.1189V49.905ZM84.4173 39.8703H92.171V10.7743H84.4173V17.5557H79.5541V24.7954H84.4173V39.8703ZM77.8106 25.9867V11.2325H55.1002V17.2808H70.1487V20.3508H55.1919V35.1508H71.6169C71.7242 35.1508 71.8313 35.1504 71.938 35.1496C72.0406 35.1488 72.1429 35.1477 72.2449 35.1461C73.8204 35.1226 75.329 35.01 76.7707 34.8082C76.8269 34.8004 76.883 34.7924 76.9389 34.7842C77.2439 34.7399 77.5378 34.6926 77.8206 34.6423C77.8519 34.6367 77.883 34.6312 77.9139 34.6255C79.1494 34.4009 80.1702 34.1178 80.9764 33.7762V27.8195C80.5555 27.9851 80.0814 28.1374 79.5541 28.2765C79.2908 28.3459 79.0142 28.412 78.7244 28.4748C78.4332 28.5379 78.1286 28.5977 77.8106 28.6541C77.559 28.6987 77.2991 28.7413 77.0307 28.7817C76.9444 28.7934 76.8577 28.8046 76.7707 28.8156C76.5431 28.8444 76.3132 28.8709 76.0813 28.8954C75.1956 28.9886 74.2784 29.0503 73.3297 29.0806C73.2952 29.0817 73.2607 29.0828 73.226 29.0838C72.8029 29.0963 72.3736 29.1025 71.938 29.1025H62.8538V25.9867H77.8106ZM98.2232 41.2908V48.5304H137.863V41.2908H98.2232ZM152.036 32.8598C152.265 32.8598 152.495 32.8577 152.724 32.8537C153.819 32.8343 154.925 32.7688 156.043 32.6572C156.51 32.6106 156.979 32.5559 157.45 32.4932C157.781 32.4491 158.1 32.4015 158.408 32.3505C158.44 32.345 158.473 32.3396 158.505 32.334C159.857 32.1043 160.973 31.8061 161.854 31.4393V25.0245C161.151 25.2831 160.353 25.5083 159.46 25.6999C159.036 25.7909 158.59 25.8744 158.123 25.9502C157.948 25.9787 157.769 26.0062 157.588 26.0325C157.258 26.0752 156.93 26.1136 156.603 26.1477C156.416 26.1672 156.229 26.1854 156.043 26.2021C155.427 26.2575 154.815 26.2977 154.208 26.3226C153.71 26.343 153.216 26.3533 152.724 26.3533H150.476V11.0034H143.044V32.8598H152.036ZM163.69 33.9137H170.847V25.4368H174.104V34.326H181.353V10.7743H174.104V18.1972H170.847V10.9575H163.69V33.9137ZM145.108 35.7007V42.3446H173.691V50.3632H181.353V35.7007H145.108ZM123.176 13.0808C123.247 12.6809 123.31 12.2787 123.365 11.874L115.474 10.6368C115.417 11.0613 115.351 11.4803 115.276 11.894C114.748 14.8144 113.774 17.4654 112.354 19.8467C111.715 20.9061 111.019 21.8754 110.267 22.7544C109.109 24.106 107.817 25.2445 106.39 26.17C106.195 26.2952 106 26.4151 105.804 26.5299C105.797 26.5339 105.79 26.538 105.783 26.5421C103.884 27.6472 101.896 28.2634 99.8176 28.3904C99.5477 28.4069 99.2762 28.4152 99.0032 28.4152V35.7465C99.2758 35.7442 99.5473 35.7371 99.8176 35.7253C102.186 35.6212 104.463 35.1484 106.65 34.3068C107.162 34.1095 107.67 33.8919 108.173 33.654C108.576 33.4634 108.976 33.2597 109.372 33.0431C109.73 32.8458 110.083 32.6407 110.43 32.4277C110.436 32.4234 110.443 32.4192 110.45 32.415C112.491 31.1588 114.336 29.6299 115.983 27.8281C116.455 27.3117 116.911 26.7729 117.351 26.2117C117.491 26.0321 117.631 25.8502 117.768 25.6659L133.826 35.9298L137.909 29.6523L121.209 19.6176C121.256 19.508 121.303 19.3982 121.349 19.2882C121.391 19.1875 121.433 19.0867 121.474 18.9857C122.247 17.0799 122.814 15.1116 123.176 13.0808Z" fill="#F0F0F3"/>
</g>
<path d="M38.688 30.5225H31.5604V11.3149H38.688V17.4325H41.932V11.1349H49.151V30.9273H41.932V24.3149H38.688V30.5225ZM28.9104 30.1176H11V11.5848H17.8992V15.1384H22.0112V11.5848H28.9104V30.1176ZM22.0112 24.4498V20.6713H17.8992V24.4498H22.0112ZM49.5622 44.3772V49.5502H13.2388V38.7543H41.6122V37.4048H13.1474V32.2768H49.151V42.9827H20.7776V44.3772H49.5622Z" fill="#7B81BE"/>
<path d="M84.4653 24.8997H79.6222V17.7924H84.4653V11.1349H92.1869V39.699H84.4653V24.8997ZM70.2558 20.5363V17.5225H55.2695V11.5848H77.8859V26.0692H62.9911V29.128H72.0377C73.8348 29.128 75.5253 29.0231 77.1092 28.8131C78.7236 28.5732 80.0334 28.2584 81.0386 27.8685V33.7163C80.0334 34.1361 78.6931 34.466 77.0178 34.7059C75.3425 34.9458 73.5759 35.0657 71.7178 35.0657H55.3609V20.5363H70.2558ZM92.7351 42.8477V49.5502H57.2799V37.4948H65.1385V42.8477H92.7351Z" fill="#7B81BE"/>
<path d="M117.678 25.7543C115.363 28.8131 112.576 31.2272 109.317 32.9965C106.088 34.7359 102.646 35.6205 98.9907 35.6505V28.4533C101.58 28.4533 104.032 27.7186 106.347 26.2491C108.692 24.7497 110.672 22.6805 112.286 20.0415C113.901 17.3725 114.936 14.3587 115.393 11L123.252 12.2145C122.886 14.8535 122.171 17.3875 121.105 19.8166L137.736 29.6678L133.669 35.8305L117.678 25.7543ZM98.214 41.0934H137.69V48.2007H98.214V41.0934Z" fill="#7B81BE"/>
<path d="M181 11.1349V34.2561H173.781V25.5294H170.537V33.8512H163.409V11.3149H170.537V18.4221H173.781V11.1349H181ZM161.582 31.4221C160.485 31.872 159.023 32.2168 157.196 32.4567C155.368 32.6967 153.571 32.8166 151.804 32.8166H142.849V11.3599H150.251V26.4291H152.49C154.073 26.4291 155.688 26.3241 157.333 26.1142C159.008 25.8743 160.424 25.5444 161.582 25.1246V31.4221ZM144.905 35.6055H181V50H173.37V42.128H144.905V35.6055Z" fill="#7B81BE"/>
<defs>
<filter id="filter0_ddddii_540_72" x="0" y="0" width="193" height="62" filterUnits="userSpaceOnUse" color-interpolation-filters="sRGB">
<feFlood flood-opacity="0" result="BackgroundImageFix"/>
<feColorMatrix in="SourceAlpha" type="matrix" values="0 0 0 0 0 0 0 0 0 0 0 0 0 0 0 0 0 0 127 0" result="hardAlpha"/>
<feOffset dx="1" dy="1"/>
<feGaussianBlur stdDeviation="1.5"/>
<feColorMatrix type="matrix" values="0 0 0 0 0.745098 0 0 0 0 0.745098 0 0 0 0 0.752941 0 0 0 0.9 0"/>
<feBlend mode="normal" in2="BackgroundImageFix" result="effect1_dropShadow_540_72"/>
<feColorMatrix in="SourceAlpha" type="matrix" values="0 0 0 0 0 0 0 0 0 0 0 0 0 0 0 0 0 0 127 0" result="hardAlpha"/>
<feOffset dx="-1" dy="-1"/>
<feGaussianBlur stdDeviation="1"/>
<feColorMatrix type="matrix" values="0 0 0 0 1 0 0 0 0 1 0 0 0 0 1 0 0 0 0.9 0"/>
<feBlend mode="normal" in2="effect1_dropShadow_540_72" result="effect2_dropShadow_540_72"/>
<feColorMatrix in="SourceAlpha" type="matrix" values="0 0 0 0 0 0 0 0 0 0 0 0 0 0 0 0 0 0 127 0" result="hardAlpha"/>
<feOffset dx="1" dy="-1"/>
<feGaussianBlur stdDeviation="1"/>
<feColorMatrix type="matrix" values="0 0 0 0 0.745098 0 0 0 0 0.745098 0 0 0 0 0.752941 0 0 0 0.2 0"/>
<feBlend mode="normal" in2="effect2_dropShadow_540_72" result="effect3_dropShadow_540_72"/>
<feColorMatrix in="SourceAlpha" type="matrix" values="0 0 0 0 0 0 0 0 0 0 0 0 0 0 0 0 0 0 127 0" result="hardAlpha"/>
<feOffset dx="-1" dy="1"/>
<feGaussianBlur stdDeviation="1"/>
<feColorMatrix type="matrix" values="0 0 0 0 0.745098 0 0 0 0 0.745098 0 0 0 0 0.752941 0 0 0 0.2 0"/>
<feBlend mode="normal" in2="effect3_dropShadow_540_72" result="effect4_dropShadow_540_72"/>
<feBlend mode="normal" in="SourceGraphic" in2="effect4_dropShadow_540_72" result="shape"/>
<feColorMatrix in="SourceAlpha" type="matrix" values="0 0 0 0 0 0 0 0 0 0 0 0 0 0 0 0 0 0 127 0" result="hardAlpha"/>
<feOffset dx="-1" dy="-1"/>
<feGaussianBlur stdDeviation="1"/>
<feComposite in2="hardAlpha" operator="arithmetic" k2="-1" k3="1"/>
<feColorMatrix type="matrix" values="0 0 0 0 0.745098 0 0 0 0 0.745098 0 0 0 0 0.752941 0 0 0 0.5 0"/>
<feBlend mode="normal" in2="shape" result="effect5_innerShadow_540_72"/>
<feColorMatrix in="SourceAlpha" type="matrix" values="0 0 0 0 0 0 0 0 0 0 0 0 0 0 0 0 0 0 127 0" result="hardAlpha"/>
<feOffset dx="1" dy="1"/>
<feGaussianBlur stdDeviation="1"/>
<feComposite in2="hardAlpha" operator="arithmetic" k2="-1" k3="1"/>
<feColorMatrix type="matrix" values="0 0 0 0 1 0 0 0 0 1 0 0 0 0 1 0 0 0 0.3 0"/>
<feBlend mode="normal" in2="effect5_innerShadow_540_72" result="effect6_innerShadow_540_72"/>
</filter>
</defs>
</svg>
